<?xml version="1.0" ?><svg height="64px" id="Слой_1" style="enable-background:new 0 0 64 64;" version="1.1" viewBox="0 0 64 64" width="64px" xml:space="preserve" xmlns="http://www.w3.org/2000/svg" xmlns:xlink="http://www.w3.org/1999/xlink"><g id="row_3"><g id="rip"><path d="M53,21c-1.3-3.1-3.7-5.6-6.8-6.9L46,11h-2.9c-1.8-4.7-6-8.1-11.1-8.8c-5.1,0.7-9.3,4.2-11.1,8.8H18    l-0.2,3.1c-3.1,1.3-5.5,3.8-6.8,6.9c1.1,2.8,3.2,5,5.8,6.4L16,39h32l-0.8-11.6C49.8,26,51.9,23.8,53,21z" style="fill:#455A64;"/><rect height="14" style="fill:#37474F;" width="34" x="15" y="39"/><path d="M49,54H15c-0.5,0-1-0.5-1-1l0,0c0-0.5,0.4-1,1-1h34c0.5,0,1,0.5,1,1l0,0C50,53.6,49.5,54,49,54z     M50,39L50,39c0-0.5-0.5-1-1-1H15c-0.5,0-1,0.5-1,1l0,0c0,0.5,0.4,1,1,1h34C49.5,40,50,39.6,50,39z" style="fill:#546E7A;"/><polygon points="50,58 14,58 14,55 15,54 49,54 50,55   " style="fill:#263238;"/><path d="M53,61H11v-1c0-1.7,1.3-3,3-3h36c1.7,0,3,1.3,3,3V61z" style="fill:#004D40;"/><path d="M39.5,18h-3c-0.3,0-0.5,0.2-0.5,0.5s0.2,0.5,0.5,0.5H37v2.5V24h-0.5c-0.3,0-0.5,0.2-0.5,0.5    s0.2,0.5,0.5,0.5h2c0.3,0,0.5-0.2,0.5-0.5S38.8,24,38.5,24H38v-2h1.5c1.1,0,2-0.9,2-2S40.6,18,39.5,18z M39.5,21H38v-2h1.5    c0.6,0,1,0.4,1,1S40.1,21,39.5,21z" style="fill:#ECEFF1;"/><path d="M34,19c0.3,0,0.5-0.2,0.5-0.5S34.3,18,34,18h-3c-0.3,0-0.5,0.2-0.5,0.5S30.7,19,31,19h1v5h-1    c-0.3,0-0.5,0.2-0.5,0.5S30.7,25,31,25h3c0.3,0,0.5-0.2,0.5-0.5S34.3,24,34,24h-1v-5H34z" style="fill:#ECEFF1;"/><path d="M28.3,24h-0.2c-0.4-0.8-1-1.6-1.7-2.2c0.7-0.3,1.1-1,1.1-1.8c0-1.1-0.9-2-2-2h-3    c-0.3,0-0.5,0.2-0.5,0.5s0.2,0.5,0.5,0.5H23v2.5V24h-0.5c-0.3,0-0.5,0.2-0.5,0.5s0.2,0.5,0.5,0.5h2c0.3,0,0.5-0.2,0.5-0.5    S24.8,24,24.5,24H24v-2h1c1,0.7,1.8,1.6,2.3,2.7c0,0,0,0,0,0c0,0.1,0.1,0.1,0.2,0.2c0,0,0,0,0.1,0c0.1,0,0.1,0.1,0.2,0.1h0.5    c0.3,0,0.5-0.2,0.5-0.5S28.6,24,28.3,24z M25.5,19c0.6,0,1,0.4,1,1s-0.4,1-1,1H24v-2H25.5z" style="fill:#ECEFF1;"/></g></g></svg>