<svg version="1.1" viewBox="0 0 385 385" xmlns="http://www.w3.org/2000/svg">
 <g id="Fullscreen" stroke-width="1.0201">
  <path d="m303.64 155h49.162c6.9849 0 12.187-5.4871 12.199-12.443 0-6.9439-5.2144-12.051-12.199-12.051h-48.076c-37.534 0.56915-50.491-14.155-49-49.129l-0.92358-49.129c0-6.9562-5.3125-12.247-12.297-12.247-6.9849 0.0122-12.297 5.2907-12.297 12.247l-0.19729 49.241c-0.4824 50.493 18.585 73.216 73.63 73.512z"/>
  <path d="m81.361 230h-49.162c-6.9849 0-12.187 5.4871-12.199 12.443 0 6.9439 5.2144 12.051 12.199 12.051h48.076c37.534-0.56915 50.491 14.155 49 49.129l0.92358 49.129c0 6.9562 5.3125 12.247 12.297 12.247 6.9849-0.0122 12.297-5.2907 12.297-12.247l0.19729-49.241c0.4824-50.493-18.585-73.216-73.63-73.512z"/>
  <path d="m155 81.361v-49.162c0-6.9849-5.4871-12.187-12.443-12.199-6.9439 0-12.051 5.2144-12.051 12.199v48.076c0.56914 37.534-14.155 50.491-49.129 49l-49.129 0.92358c-6.9562 0-12.247 5.3125-12.247 12.297 0.0122 6.9849 5.2907 12.297 12.247 12.297l49.241 0.19729c50.493 0.4824 73.216-18.585 73.512-73.63z"/>
  <path d="m230 303.64v49.162c0 6.9849 5.4871 12.187 12.443 12.199 6.9439 0 12.051-5.2144 12.051-12.199v-48.076c-0.56915-37.534 14.155-50.491 49.129-49l49.129-0.92358c6.9562 0 12.247-5.3125 12.247-12.297-0.0122-6.9849-5.2907-12.297-12.247-12.297l-49.241-0.19729c-50.493-0.4824-73.216 18.585-73.512 73.63z"/>
 </g>
</svg>
