<svg version="1.1" viewBox="0 0 385 385" xmlns="http://www.w3.org/2000/svg">
 <g id="Fullscreen">
  <path d="m312.94 0h-48.093c-6.833 0-11.922 5.39-11.934 12.223 0 6.821 5.101 11.838 11.934 11.838h47.031c36.718-0.55907 49.394 13.904 47.934 48.26l0.9035 48.26c0 6.833 5.197 12.03 12.03 12.03 6.833-0.012 12.03-5.197 12.03-12.03l0.193-48.369c0.47191-49.599-18.181-71.92-72.029-72.211z"/>
  <g stroke-width="1.0201">
   <path d="m311.36 0h-49.162c-6.9849 0-12.187 5.4871-12.199 12.443 0 6.9439 5.2144 12.051 12.199 12.051h48.076c37.534-0.56914 50.491 14.155 49 49.129l0.92358 49.129c0 6.9562 5.3125 12.247 12.297 12.247 6.9849-0.0122 12.297-5.2907 12.297-12.247l0.19729-49.241c0.4824-50.493-18.585-73.216-73.63-73.512z"/>
   <path d="m73.639 385h49.162c6.9849 0 12.187-5.4871 12.199-12.443 0-6.9439-5.2144-12.051-12.199-12.051h-48.076c-37.534 0.56915-50.491-14.155-49-49.129l-0.92358-49.129c0-6.9562-5.3125-12.247-12.297-12.247-6.9849 0.0122-12.297 5.2907-12.297 12.247l-0.19729 49.241c-0.4824 50.493 18.585 73.216 73.63 73.512z"/>
   <path d="m0 73.639v49.162c0 6.9849 5.4871 12.187 12.443 12.199 6.9439 0 12.051-5.2144 12.051-12.199v-48.076c-0.56914-37.534 14.155-50.491 49.129-49l49.129-0.92358c6.9562 0 12.247-5.3125 12.247-12.297-0.0122-6.9849-5.2907-12.297-12.247-12.297l-49.241-0.19729c-50.493-0.4824-73.216 18.585-73.512 73.63z"/>
   <path d="m385 311.36v-49.162c0-6.9849-5.4871-12.187-12.443-12.199-6.9439 0-12.051 5.2144-12.051 12.199v48.076c0.56915 37.534-14.155 50.491-49.129 49l-49.129 0.92358c-6.9562 0-12.247 5.3125-12.247 12.297 0.0122 6.9849 5.2907 12.297 12.247 12.297l49.241 0.19729c50.493 0.4824 73.216-18.585 73.512-73.63z"/>
  </g>
 </g>
</svg>
